<svg width="74" height="26" viewBox="0 0 74 26" fill="none" xmlns="http://www.w3.org/2000/svg">
<path d="M2.366 18C1.93933 18 1.598 17.8827 1.342 17.648C1.10733 17.392 0.990001 17.0507 0.990001 16.624V1.84C1.01133 1.43467 1.13933 1.11467 1.374 0.879999C1.63 0.623999 1.96067 0.495998 2.366 0.495998C2.77133 0.495998 3.09133 0.623999 3.326 0.879999C3.582 1.11467 3.71 1.44533 3.71 1.872V7.76H10.27V8.272C11.4007 8.272 12.4033 8.47467 13.278 8.88C14.174 9.28533 14.8673 9.85067 15.358 10.576C15.8487 11.28 16.094 12.0907 16.094 13.008C16.094 13.9893 15.8487 14.8533 15.358 15.6C14.8673 16.3467 14.174 16.9333 13.278 17.36C12.4033 17.7867 11.4007 18 10.27 18H2.366ZM3.71 15.504H10.27C11.2087 15.504 11.966 15.2693 12.542 14.8C13.1393 14.3307 13.438 13.6693 13.438 12.816C13.438 11.9413 13.1393 11.2693 12.542 10.8C11.966 10.3093 11.2087 10.064 10.27 10.064H3.71V15.504ZM7.326 9.264V7.76H10.43C11.1127 7.76 11.6673 7.52533 12.094 7.056C12.542 6.58667 12.766 5.98933 12.766 5.264C12.766 4.624 12.5207 4.08 12.03 3.632C11.5607 3.184 10.974 2.96 10.27 2.96H2.398V0.495998H10.27C11.2513 0.495998 12.1153 0.698666 12.862 1.104C13.63 1.488 14.238 2.02133 14.686 2.704C15.134 3.38667 15.358 4.176 15.358 5.072C15.358 6.416 14.8887 7.45067 13.95 8.176C13.0327 8.90133 11.8593 9.264 10.43 9.264H7.326ZM32.2248 18C31.9688 18 31.7554 17.968 31.5848 17.904C31.4141 17.8187 31.2434 17.6693 31.0728 17.456L25.5368 10.512L24.5128 9.584L18.9448 2.64C18.6888 2.34133 18.5608 2.032 18.5608 1.712C18.5608 1.392 18.6674 1.11467 18.8808 0.879999C19.0941 0.623999 19.3928 0.495998 19.7768 0.495998C20.1821 0.495998 20.5234 0.645332 20.8008 0.943998L26.2088 7.696L27.0408 8.432L33.0248 15.92C33.3234 16.2613 33.4514 16.6027 33.4088 16.944C33.3874 17.264 33.2488 17.52 32.9928 17.712C32.7581 17.904 32.5021 18 32.2248 18ZM19.6808 18C19.3181 18 19.0194 17.8827 18.7848 17.648C18.5714 17.4133 18.4648 17.136 18.4648 16.816C18.4648 16.496 18.5928 16.176 18.8488 15.856L24.5768 8.688L26.0808 10.704L20.6408 17.584C20.4061 17.8613 20.0861 18 19.6808 18ZM27.2968 9.712L25.5368 8.016L30.9448 1.072C31.0941 0.858665 31.2648 0.709332 31.4568 0.623999C31.6488 0.538665 31.8408 0.495998 32.0328 0.495998C32.4381 0.495998 32.7368 0.623999 32.9288 0.879999C33.1421 1.11467 33.2381 1.40267 33.2168 1.744C33.2168 2.08533 33.0994 2.40533 32.8648 2.704L27.2968 9.712ZM43.728 18.16C42 18.16 40.464 17.776 39.12 17.008C37.7973 16.24 36.752 15.184 35.984 13.84C35.216 12.496 34.832 10.9707 34.832 9.264C34.832 7.536 35.216 6 35.984 4.656C36.752 3.312 37.7973 2.256 39.12 1.488C40.464 0.719999 42 0.335999 43.728 0.335999C45.4347 0.335999 46.9493 0.719999 48.272 1.488C49.5947 2.256 50.64 3.312 51.408 4.656C52.176 6 52.5707 7.536 52.592 9.264C52.592 10.9707 52.208 12.496 51.44 13.84C50.672 15.184 49.616 16.24 48.272 17.008C46.9493 17.776 45.4347 18.16 43.728 18.16ZM43.728 15.728C44.9227 15.728 45.9893 15.4507 46.928 14.896C47.8667 14.32 48.6027 13.552 49.136 12.592C49.6693 11.6107 49.936 10.5013 49.936 9.264C49.936 8.02667 49.6693 6.91733 49.136 5.936C48.6027 4.95467 47.8667 4.18667 46.928 3.632C45.9893 3.056 44.9227 2.768 43.728 2.768C42.5333 2.768 41.456 3.056 40.496 3.632C39.5573 4.18667 38.8107 4.95467 38.256 5.936C37.7227 6.91733 37.456 8.02667 37.456 9.264C37.456 10.5013 37.7227 11.6107 38.256 12.592C38.8107 13.552 39.5573 14.32 40.496 14.896C41.456 15.4507 42.5333 15.728 43.728 15.728ZM64.729 18.16C63.065 18.16 61.593 17.7867 60.313 17.04C59.033 16.272 58.0303 15.216 57.305 13.872C56.5797 12.528 56.217 10.992 56.217 9.264C56.217 7.51467 56.601 5.968 57.369 4.624C58.137 3.28 59.1823 2.23467 60.505 1.488C61.849 0.719999 63.385 0.335999 65.113 0.335999C66.8197 0.335999 68.3343 0.719999 69.657 1.488C71.001 2.23467 72.0463 3.28 72.793 4.624C73.561 5.968 73.9557 7.51467 73.977 9.264L72.377 9.808C72.377 11.4293 72.0463 12.8693 71.385 14.128C70.745 15.3867 69.849 16.3787 68.697 17.104C67.545 17.808 66.2223 18.16 64.729 18.16ZM65.113 25.008C63.4917 25.008 62.0303 24.6987 60.729 24.08C59.449 23.4613 58.3717 22.5973 57.497 21.488C57.2623 21.2107 57.1663 20.9013 57.209 20.56C57.2517 20.24 57.4223 19.984 57.721 19.792C58.041 19.5787 58.3823 19.504 58.745 19.568C59.1077 19.632 59.3957 19.8133 59.609 20.112C60.2063 20.8587 60.9743 21.456 61.913 21.904C62.8517 22.352 63.9397 22.576 65.177 22.576C66.3077 22.576 67.3423 22.2987 68.281 21.744C69.2197 21.2107 69.9557 20.432 70.489 19.408C71.0437 18.384 71.321 17.168 71.321 15.76V11.024L72.281 8.848L73.977 9.264V15.92C73.977 17.6267 73.593 19.1627 72.825 20.528C72.057 21.9147 71.0117 23.0027 69.689 23.792C68.3663 24.6027 66.841 25.008 65.113 25.008ZM65.113 15.728C66.329 15.728 67.3957 15.4507 68.313 14.896C69.2517 14.3413 69.9877 13.584 70.521 12.624C71.0543 11.6427 71.321 10.5227 71.321 9.264C71.321 8.00533 71.0543 6.88533 70.521 5.904C69.9877 4.92267 69.2517 4.15467 68.313 3.6C67.3957 3.04533 66.329 2.768 65.113 2.768C63.897 2.768 62.8197 3.04533 61.881 3.6C60.9423 4.15467 60.1957 4.92267 59.641 5.904C59.1077 6.88533 58.841 8.00533 58.841 9.264C58.841 10.5227 59.1077 11.6427 59.641 12.624C60.1957 13.584 60.9423 14.3413 61.881 14.896C62.8197 15.4507 63.897 15.728 65.113 15.728Z" fill="white"/>
</svg>
